<mxfile host="app.diagrams.net" modified="2022-09-04T12:20:01.378Z" agent="5.0 (Macintosh; Intel Mac OS X 10_15_7) AppleWebKit/537.36 (KHTML, like Gecko) Chrome/104.0.0.0 Safari/537.36" etag="35ysYHgTByFTamVgrwGZ" version="20.2.8" type="github">
  <diagram id="CHairN_9EPA_hMaviQ3Y" name="Page-1">
    <mxGraphModel dx="1426" dy="699" grid="1" gridSize="10" guides="1" tooltips="1" connect="1" arrows="1" fold="1" page="1" pageScale="1" pageWidth="827" pageHeight="1169" math="0" shadow="0">
      <root>
        <mxCell id="0" />
        <mxCell id="1" parent="0" />
        <mxCell id="j1_-uaNJY2YgyMcka5-Z-7" value="" style="ellipse;whiteSpace=wrap;html=1;aspect=fixed;" vertex="1" parent="1">
          <mxGeometry x="310" y="285" width="80" height="80" as="geometry" />
        </mxCell>
        <mxCell id="j1_-uaNJY2YgyMcka5-Z-9" style="edgeStyle=orthogonalEdgeStyle;rounded=0;orthogonalLoop=1;jettySize=auto;html=1;" edge="1" parent="1" source="j1_-uaNJY2YgyMcka5-Z-3">
          <mxGeometry relative="1" as="geometry">
            <mxPoint x="310" y="325" as="targetPoint" />
          </mxGeometry>
        </mxCell>
        <mxCell id="j1_-uaNJY2YgyMcka5-Z-3" value="" style="sketch=0;outlineConnect=0;fontColor=#232F3E;gradientColor=none;fillColor=#4D27AA;strokeColor=none;dashed=0;verticalLabelPosition=bottom;verticalAlign=top;align=center;html=1;fontSize=12;fontStyle=0;aspect=fixed;pointerEvents=1;shape=mxgraph.aws4.application_load_balancer;" vertex="1" parent="1">
          <mxGeometry x="100" y="290" width="70" height="70" as="geometry" />
        </mxCell>
        <mxCell id="j1_-uaNJY2YgyMcka5-Z-4" value="" style="outlineConnect=0;dashed=0;verticalLabelPosition=bottom;verticalAlign=top;align=center;html=1;shape=mxgraph.aws3.efs;fillColor=#E05243;gradientColor=none;" vertex="1" parent="1">
          <mxGeometry x="560" y="182" width="76.5" height="83" as="geometry" />
        </mxCell>
        <mxCell id="j1_-uaNJY2YgyMcka5-Z-5" value="" style="aspect=fixed;html=1;points=[];align=center;image;fontSize=12;image=img/lib/azure2/databases/Azure_Database_PostgreSQL_Server.svg;" vertex="1" parent="1">
          <mxGeometry x="572.06" y="400.16" width="52.38" height="69.84" as="geometry" />
        </mxCell>
        <mxCell id="j1_-uaNJY2YgyMcka5-Z-6" value="" style="image;image=img/lib/atlassian/Jira_Logo.svg;" vertex="1" parent="1">
          <mxGeometry x="325" y="300" width="50" height="60" as="geometry" />
        </mxCell>
        <mxCell id="j1_-uaNJY2YgyMcka5-Z-11" value="" style="curved=1;endArrow=classic;html=1;rounded=0;" edge="1" parent="1" target="j1_-uaNJY2YgyMcka5-Z-4">
          <mxGeometry width="50" height="50" relative="1" as="geometry">
            <mxPoint x="390" y="320" as="sourcePoint" />
            <mxPoint x="440" y="270" as="targetPoint" />
            <Array as="points">
              <mxPoint x="440" y="320" />
              <mxPoint x="450" y="246" />
            </Array>
          </mxGeometry>
        </mxCell>
        <mxCell id="j1_-uaNJY2YgyMcka5-Z-13" value="" style="curved=1;endArrow=classic;html=1;rounded=0;exitX=0.938;exitY=0.75;exitDx=0;exitDy=0;exitPerimeter=0;" edge="1" parent="1" source="j1_-uaNJY2YgyMcka5-Z-7">
          <mxGeometry width="50" height="50" relative="1" as="geometry">
            <mxPoint x="400" y="494.43" as="sourcePoint" />
            <mxPoint x="570" y="440" as="targetPoint" />
            <Array as="points">
              <mxPoint x="440" y="350" />
              <mxPoint x="470" y="430" />
            </Array>
          </mxGeometry>
        </mxCell>
        <mxCell id="j1_-uaNJY2YgyMcka5-Z-14" value="&lt;b&gt;Elastic Load Balacer (EBL)&lt;/b&gt;" style="text;html=1;align=center;verticalAlign=middle;resizable=0;points=[];autosize=1;strokeColor=none;fillColor=none;" vertex="1" parent="1">
          <mxGeometry x="50" y="375" width="180" height="30" as="geometry" />
        </mxCell>
        <mxCell id="j1_-uaNJY2YgyMcka5-Z-15" value="&lt;b&gt;2X application nodes&lt;br&gt;(C5.XLarge)&lt;/b&gt;" style="text;html=1;align=center;verticalAlign=middle;resizable=0;points=[];autosize=1;strokeColor=none;fillColor=none;" vertex="1" parent="1">
          <mxGeometry x="280" y="390" width="140" height="40" as="geometry" />
        </mxCell>
        <mxCell id="j1_-uaNJY2YgyMcka5-Z-16" value="&lt;b&gt;Postgres RDS&amp;nbsp;&lt;br&gt;(db.m5.Large)&lt;/b&gt;" style="text;html=1;align=center;verticalAlign=middle;resizable=0;points=[];autosize=1;strokeColor=none;fillColor=none;" vertex="1" parent="1">
          <mxGeometry x="543.25" y="480" width="110" height="40" as="geometry" />
        </mxCell>
        <mxCell id="j1_-uaNJY2YgyMcka5-Z-17" value="&lt;b&gt;Elastic File System (EFS)&lt;/b&gt;" style="text;html=1;align=center;verticalAlign=middle;resizable=0;points=[];autosize=1;strokeColor=none;fillColor=none;" vertex="1" parent="1">
          <mxGeometry x="530" y="270" width="170" height="30" as="geometry" />
        </mxCell>
      </root>
    </mxGraphModel>
  </diagram>
</mxfile>
